<svg width="384" height="95" viewBox="0 0 384 95" fill="none" xmlns="http://www.w3.org/2000/svg">
<path d="M86.167 40.201V23.38H77.347V70H86.167V65.023C88.309 68.047 92.215 70.567 97.696 70.567C106.642 70.567 113.635 63.322 113.635 52.423C113.635 41.524 106.642 34.531 97.696 34.531C92.404 34.531 88.309 36.988 86.167 40.201ZM104.626 52.423C104.626 59.038 100.153 62.818 95.365 62.818C90.64 62.818 86.167 59.164 86.167 52.549C86.167 45.934 90.64 42.28 95.365 42.28C100.153 42.28 104.626 45.808 104.626 52.423ZM120.989 70H129.935V42.343H136.046V35.098H129.935V33.649C129.935 29.743 131.384 28.357 135.668 28.483V21.049C125.84 20.797 120.989 24.766 120.989 33.334V35.098H117.02V42.343H120.989V70ZM175.467 52.549C175.467 41.524 167.592 34.531 157.512 34.531C147.432 34.531 139.557 41.524 139.557 52.549C139.557 63.511 147.18 70.567 157.26 70.567C167.403 70.567 175.467 63.511 175.467 52.549ZM148.503 52.549C148.503 45.556 152.724 42.217 157.386 42.217C162.048 42.217 166.395 45.556 166.395 52.549C166.395 59.479 161.922 62.881 157.26 62.881C152.535 62.881 148.503 59.479 148.503 52.549ZM190.757 52.612C190.757 45.871 193.907 43.855 199.136 43.855H201.467V34.594C196.616 34.594 192.962 36.925 190.757 40.516V35.098H181.937V70H190.757V52.612Z" fill="white"/>
<path d="M212.828 70H233.388C243.523 70 249.34 64.5859 249.34 57.1808C249.34 50.5586 244.53 46.3974 238.981 46.1513V45.7038C244.015 44.6523 247.55 41.0057 247.55 35.7706C247.55 28.8576 242.225 24.1818 231.934 24.1818H212.828V70ZM223.902 61.0735V50.1559H230.95C235.178 50.1559 237.773 52.3931 237.773 55.9055C237.773 59.1495 235.536 61.0735 230.748 61.0735H223.902ZM223.902 43.0192V32.9741H230.211C233.903 32.9741 236.252 34.8757 236.252 37.9183C236.252 41.1399 233.657 43.0192 230.032 43.0192H223.902ZM254.664 70H284.799V61.0064H265.738V24.1818H254.664V70ZM331.994 47.0909C331.994 31.945 322.418 23.5554 310.114 23.5554C297.764 23.5554 288.256 31.945 288.256 47.0909C288.256 62.1697 297.764 70.6264 310.114 70.6264C322.418 70.6264 331.994 62.2369 331.994 47.0909ZM320.673 47.0909C320.673 56.0621 316.736 60.9169 310.114 60.9169C303.514 60.9169 299.554 56.0621 299.554 47.0909C299.554 38.1197 303.514 33.2649 310.114 33.2649C316.736 33.2649 320.673 38.1197 320.673 47.0909ZM368.527 39.1488H379.736C378.617 30.021 370.474 23.5554 359.869 23.5554C347.632 23.5554 337.967 32.1687 337.967 47.158C337.967 61.6552 346.871 70.6264 360.003 70.6264C371.794 70.6264 380.228 63.3107 380.228 51.006V44.9432H360.473V53.0195H369.556C369.445 57.8519 366.089 60.9169 360.093 60.9169C353.225 60.9169 349.265 55.8384 349.265 47.0238C349.265 38.2763 353.448 33.2649 360.093 33.2649C364.523 33.2649 367.543 35.435 368.527 39.1488Z" fill="#06B6D4"/>
<circle cx="32" cy="46" r="32" fill="white"/>
<path fill-rule="evenodd" clip-rule="evenodd" d="M18.186 24C15.8742 24 14 25.8742 14 28.1861V49.8077C14 59.855 22.0589 68 32 68C41.9411 68 50 59.855 50 49.8077C50 39.7604 41.9411 31.6154 32 31.6154C28.4588 31.6154 25.1564 32.6489 22.3721 34.4338V28.186C22.3721 25.8742 20.4979 24 18.186 24ZM41.4286 49.8077C41.4286 55.0706 37.2073 59.337 32 59.337C26.7927 59.337 22.5714 55.0706 22.5714 49.8077C22.5714 44.5448 26.7927 40.2784 32 40.2784C37.2073 40.2784 41.4286 44.5448 41.4286 49.8077Z" fill="black"/>
<ellipse cx="39.612" cy="33.602" rx="3.34883" ry="3.38462" fill="#06B6D4"/>
</svg>
