<svg width="64" height="64" viewBox="0 0 64 64" fill="none" xmlns="http://www.w3.org/2000/svg">
<circle cx="32" cy="32" r="32" fill="white"/>
<path fill-rule="evenodd" clip-rule="evenodd" d="M18.186 10C15.8742 10 14 11.8742 14 14.1861V35.8077C14 45.855 22.0589 54 32 54C41.9411 54 50 45.855 50 35.8077C50 25.7604 41.9411 17.6154 32 17.6154C28.4588 17.6154 25.1564 18.6489 22.3721 20.4338V14.186C22.3721 11.8742 20.4979 10 18.186 10ZM41.4286 35.8077C41.4286 41.0706 37.2073 45.337 32 45.337C26.7927 45.337 22.5714 41.0706 22.5714 35.8077C22.5714 30.5448 26.7927 26.2784 32 26.2784C37.2073 26.2784 41.4286 30.5448 41.4286 35.8077Z" fill="black"/>
<ellipse cx="39.612" cy="19.602" rx="3.34883" ry="3.38462" fill="#06B6D4"/>
</svg>
