<svg width="139" height="26" viewBox="0 0 139 26" fill="none" xmlns="http://www.w3.org/2000/svg">
<path d="M28.18 11.54V6.2H25.38V21H28.18V19.42C28.86 20.38 30.1 21.18 31.84 21.18C34.68 21.18 36.9 18.88 36.9 15.42C36.9 11.96 34.68 9.74 31.84 9.74C30.16 9.74 28.86 10.52 28.18 11.54ZM34.04 15.42C34.04 17.52 32.62 18.72 31.1 18.72C29.6 18.72 28.18 17.56 28.18 15.46C28.18 13.36 29.6 12.2 31.1 12.2C32.62 12.2 34.04 13.32 34.04 15.42ZM39.2347 21H42.0747V12.22H44.0147V9.92H42.0747V9.46C42.0747 8.22 42.5347 7.78 43.8947 7.82V5.46C40.7747 5.38 39.2347 6.64 39.2347 9.36V9.92H37.9747V12.22H39.2347V21ZM56.5292 15.46C56.5292 11.96 54.0292 9.74 50.8292 9.74C47.6292 9.74 45.1292 11.96 45.1292 15.46C45.1292 18.94 47.5492 21.18 50.7492 21.18C53.9692 21.18 56.5292 18.94 56.5292 15.46ZM47.9692 15.46C47.9692 13.24 49.3092 12.18 50.7892 12.18C52.2692 12.18 53.6492 13.24 53.6492 15.46C53.6492 17.66 52.2292 18.74 50.7492 18.74C49.2492 18.74 47.9692 17.66 47.9692 15.46ZM61.3831 15.48C61.3831 13.34 62.3831 12.7 64.0431 12.7H64.7831V9.76C63.2431 9.76 62.0831 10.5 61.3831 11.64V9.92H58.5831V21H61.3831V15.48Z" fill="#334155"/>
<path d="M68.3899 21H74.9169C78.1342 21 79.9808 19.2812 79.9808 16.9304C79.9808 14.8281 78.4538 13.5071 76.6925 13.429V13.2869C78.2905 12.9531 79.4126 11.7955 79.4126 10.1335C79.4126 7.93892 77.7223 6.45455 74.4553 6.45455H68.3899V21ZM71.9055 18.1662V14.7003H74.1428C75.4851 14.7003 76.3089 15.4105 76.3089 16.5256C76.3089 17.5554 75.5987 18.1662 74.0788 18.1662H71.9055ZM71.9055 12.4347V9.24574H73.9084C75.0803 9.24574 75.826 9.84943 75.826 10.8153C75.826 11.8381 75.0021 12.4347 73.8516 12.4347H71.9055ZM81.6712 21H91.2379V18.1449H85.1868V6.45455H81.6712V21ZM106.22 13.7273C106.22 8.91903 103.18 6.25568 99.2741 6.25568C95.3537 6.25568 92.3352 8.91903 92.3352 13.7273C92.3352 18.5142 95.3537 21.1989 99.2741 21.1989C103.18 21.1989 106.22 18.5355 106.22 13.7273ZM102.626 13.7273C102.626 16.5753 101.376 18.1165 99.2741 18.1165C97.179 18.1165 95.9219 16.5753 95.9219 13.7273C95.9219 10.8793 97.179 9.33807 99.2741 9.33807C101.376 9.33807 102.626 10.8793 102.626 13.7273ZM117.818 11.206H121.376C121.021 8.30824 118.436 6.25568 115.07 6.25568C111.185 6.25568 108.116 8.99006 108.116 13.7486C108.116 18.3509 110.943 21.1989 115.112 21.1989C118.855 21.1989 121.533 18.8764 121.533 14.9702V13.0455H115.261V15.6094H118.145C118.109 17.1435 117.044 18.1165 115.141 18.1165C112.96 18.1165 111.703 16.5043 111.703 13.706C111.703 10.929 113.031 9.33807 115.141 9.33807C116.547 9.33807 117.506 10.027 117.818 11.206Z" fill="#06B6D4"/>
<path fill-rule="evenodd" clip-rule="evenodd" d="M2.32558 0C1.0412 0 0 1.0412 0 2.32558V14.0769C0 19.5573 4.47715 24 10 24C15.5228 24 20 19.5573 20 14.0769C20 8.59656 15.5228 4.15385 10 4.15385C8.03266 4.15385 6.19802 4.71759 4.65116 5.69116V2.32558C4.65116 1.0412 3.60996 0 2.32558 0ZM15.2381 14.0769C15.2381 16.9476 12.8929 19.2747 9.99999 19.2747C7.10707 19.2747 4.7619 16.9476 4.7619 14.0769C4.7619 11.2063 7.10707 8.87912 9.99999 8.87912C12.8929 8.87912 15.2381 11.2063 15.2381 14.0769Z" fill="black"/>
<ellipse cx="14.2289" cy="5.23746" rx="1.86046" ry="1.84615" fill="#06B6D4"/>
</svg>
